<?xml version="1.0" encoding="UTF-8"?>
<svg id="Layer_1" xmlns="http://www.w3.org/2000/svg" viewBox="0 0 513.72 194.55">
  <circle cx="97.28" cy="97.28" r="97.28" fill="#f99d1c" stroke-width="0" />
  <circle cx="97.28" cy="97.28" r="87.04" fill="#cd4b27" stroke-width="0" />
  <circle cx="97.28" cy="97.28" r="76.8" fill="#5c2e0e" stroke-width="0" />
  <path
    d="m73.03,128.9v-5.41l24.08-29.78v5.11l-23.1-32.34v-3.44h7.18l22.12,30.96-24.28,30.67-2.56-3.64h40.5l-5.41,4.91,3.74-17.69h5.9l-.79,20.64h-47.38Zm36.86-65.86l5.41,4.91h-37.94v-4.91h41.38l.79,17.5h-5.9l-3.74-17.5Z"
    fill="#f99d1c" stroke-width="0" />
  <path
    d="m280.5,108.5c0,3.53-.86,6.56-2.58,9.07-1.72,2.52-4.26,4.42-7.62,5.72-3.36,1.3-7.45,1.95-12.26,1.95s-8.53-.7-11.81-2.11-5.7-3.16-7.27-5.27-2.34-4.23-2.34-6.35c0-1.41.5-2.61,1.5-3.61,1-1,2.27-1.5,3.8-1.5,1.34,0,2.38.33,3.09.98s1.41,1.58,2.06,2.77c1.31,2.28,2.88,3.98,4.71,5.11s4.32,1.69,7.48,1.69c2.56,0,4.66-.57,6.3-1.71,1.64-1.14,2.46-2.44,2.46-3.91,0-2.25-.85-3.89-2.55-4.92s-4.51-2.02-8.41-2.95c-4.41-1.09-7.99-2.24-10.76-3.45-2.77-1.2-4.98-2.79-6.63-4.76s-2.48-4.39-2.48-7.27c0-2.56.77-4.98,2.3-7.27,1.53-2.28,3.79-4.1,6.77-5.46s6.59-2.04,10.8-2.04c3.31,0,6.29.34,8.93,1.03,2.64.69,4.84,1.61,6.61,2.77,1.77,1.16,3.11,2.44,4.03,3.84s1.38,2.78,1.38,4.12c0,1.47-.49,2.67-1.48,3.61s-2.38,1.41-4.2,1.41c-1.31,0-2.43-.38-3.35-1.12s-1.98-1.88-3.16-3.38c-.97-1.25-2.11-2.25-3.42-3s-3.09-1.12-5.34-1.12-4.23.49-5.77,1.48-2.3,2.21-2.3,3.68c0,1.34.56,2.45,1.69,3.3,1.12.86,2.64,1.57,4.55,2.13s4.53,1.25,7.88,2.06c3.97.97,7.21,2.13,9.73,3.47,2.52,1.34,4.42,2.93,5.72,4.76s1.95,3.91,1.95,6.26Z"
    fill="#231f20" stroke="#231f20" stroke-miterlimit="10" stroke-width="2" />
  <path
    d="m297.8,67.25c-1.78,0-3.3-.55-4.57-1.64-1.27-1.09-1.9-2.64-1.9-4.64,0-1.81.65-3.3,1.95-4.48s2.8-1.76,4.52-1.76,3.12.53,4.41,1.59c1.28,1.06,1.92,2.61,1.92,4.64s-.62,3.51-1.88,4.62c-1.25,1.11-2.73,1.66-4.45,1.66Zm6.33,13.22v36.98c0,2.56-.61,4.5-1.83,5.81s-2.77,1.97-4.64,1.97-3.4-.67-4.57-2.02c-1.17-1.34-1.76-3.26-1.76-5.77v-36.61c0-2.53.59-4.44,1.76-5.72,1.17-1.28,2.7-1.92,4.57-1.92s3.42.64,4.64,1.92c1.22,1.28,1.83,3.06,1.83,5.34Z"
    fill="#231f20" stroke="#231f20" stroke-miterlimit="10" stroke-width="2" />
  <path
    d="m364.41,82.58v37.17c0,4.25-.45,7.91-1.36,10.97s-2.36,5.59-4.36,7.59-4.62,3.48-7.85,4.45-7.26,1.45-12.07,1.45c-4.41,0-8.34-.62-11.81-1.85s-6.14-2.83-8.02-4.78-2.81-3.96-2.81-6.02c0-1.56.53-2.84,1.59-3.82s2.34-1.48,3.84-1.48c1.88,0,3.52.83,4.92,2.48.69.84,1.4,1.7,2.13,2.55s1.55,1.59,2.44,2.2,1.96,1.06,3.21,1.36,2.69.45,4.31.45c3.31,0,5.88-.46,7.71-1.38s3.11-2.21,3.84-3.87,1.16-3.43,1.29-5.32.22-4.93.28-9.12c-1.97,2.75-4.24,4.84-6.82,6.28-2.58,1.44-5.65,2.16-9.21,2.16-4.28,0-8.02-1.09-11.23-3.28-3.2-2.19-5.66-5.25-7.38-9.19s-2.58-8.48-2.58-13.64c0-3.84.52-7.31,1.57-10.41s2.54-5.7,4.48-7.83c1.94-2.12,4.17-3.73,6.7-4.8s5.31-1.62,8.34-1.62c3.62,0,6.77.7,9.42,2.09,2.66,1.39,5.12,3.57,7.41,6.54v-1.73c0-2.22.55-3.94,1.64-5.16s2.5-1.83,4.22-1.83c2.47,0,4.11.8,4.92,2.41.81,1.61,1.22,3.93,1.22,6.96Zm-37.08,16.22c0,5.19,1.13,9.11,3.4,11.77,2.27,2.66,5.2,3.98,8.79,3.98,2.12,0,4.13-.57,6.02-1.71,1.89-1.14,3.43-2.86,4.62-5.16s1.78-5.09,1.78-8.37c0-5.22-1.15-9.28-3.45-12.19s-5.32-4.36-9.07-4.36-6.59,1.39-8.79,4.17c-2.2,2.78-3.3,6.73-3.3,11.86Z"
    fill="#231f20" stroke="#231f20" stroke-miterlimit="10" stroke-width="2" />
  <path
    d="m419.91,100.15v17.02c0,2.69-.61,4.7-1.83,6.05-1.22,1.34-2.83,2.02-4.83,2.02s-3.51-.67-4.71-2.02c-1.2-1.34-1.8-3.36-1.8-6.05v-20.39c0-3.22-.11-5.72-.33-7.5s-.81-3.24-1.78-4.38c-.97-1.14-2.5-1.71-4.59-1.71-4.19,0-6.95,1.44-8.27,4.31-1.33,2.88-1.99,7-1.99,12.38v17.3c0,2.66-.6,4.66-1.8,6.02s-2.79,2.04-4.76,2.04-3.52-.68-4.76-2.04-1.85-3.37-1.85-6.02v-36.61c0-2.41.55-4.23,1.66-5.48,1.11-1.25,2.57-1.88,4.38-1.88s3.21.59,4.38,1.76,1.76,2.79,1.76,4.85v1.22c2.22-2.66,4.59-4.61,7.12-5.86,2.53-1.25,5.34-1.88,8.44-1.88s5.98.64,8.3,1.92c2.31,1.28,4.22,3.22,5.72,5.81,2.16-2.62,4.47-4.57,6.94-5.84s5.2-1.9,8.2-1.9c3.5,0,6.52.69,9.05,2.06,2.53,1.38,4.42,3.34,5.67,5.91,1.09,2.31,1.64,5.95,1.64,10.92v24.98c0,2.69-.61,4.7-1.83,6.05-1.22,1.34-2.83,2.02-4.83,2.02s-3.52-.68-4.76-2.04-1.85-3.37-1.85-6.02v-21.52c0-2.75-.12-4.95-.35-6.61-.23-1.66-.87-3.05-1.9-4.17s-2.59-1.69-4.69-1.69c-1.69,0-3.29.5-4.8,1.5-1.52,1-2.7,2.34-3.54,4.03-.94,2.16-1.41,5.97-1.41,11.44Z"
    fill="#231f20" stroke="#231f20" stroke-miterlimit="10" stroke-width="2" />
  <path
    d="m494.63,118.01c-3.09,2.41-6.09,4.21-8.98,5.41-2.89,1.2-6.13,1.8-9.73,1.8-3.28,0-6.16-.65-8.65-1.95-2.48-1.3-4.4-3.05-5.74-5.27-1.34-2.22-2.02-4.62-2.02-7.22,0-3.5,1.11-6.48,3.33-8.95,2.22-2.47,5.27-4.12,9.14-4.97.81-.19,2.83-.61,6.05-1.27s5.98-1.26,8.27-1.8c2.3-.55,4.79-1.21,7.48-1.99-.16-3.38-.84-5.85-2.04-7.43-1.2-1.58-3.7-2.37-7.48-2.37-3.25,0-5.7.45-7.34,1.36-1.64.91-3.05,2.27-4.22,4.08-1.17,1.81-2,3.01-2.48,3.59-.48.58-1.52.87-3.12.87-1.44,0-2.68-.46-3.73-1.38-1.05-.92-1.57-2.1-1.57-3.54,0-2.25.8-4.44,2.39-6.56,1.59-2.12,4.08-3.87,7.45-5.25,3.38-1.38,7.58-2.06,12.61-2.06,5.62,0,10.05.66,13.27,1.99,3.22,1.33,5.49,3.43,6.82,6.3,1.33,2.88,1.99,6.69,1.99,11.44,0,3,0,5.55-.02,7.64-.02,2.09-.04,4.42-.07,6.98,0,2.41.4,4.92,1.2,7.52.8,2.61,1.2,4.29,1.2,5.04,0,1.31-.62,2.51-1.85,3.59s-2.63,1.62-4.2,1.62c-1.31,0-2.61-.62-3.89-1.85s-2.64-3.02-4.08-5.37Zm-.84-18.52c-1.88.69-4.6,1.41-8.18,2.18-3.58.77-6.05,1.33-7.43,1.69-1.38.36-2.69,1.06-3.94,2.11-1.25,1.05-1.88,2.51-1.88,4.38s.73,3.59,2.2,4.95,3.39,2.04,5.77,2.04c2.53,0,4.87-.55,7.01-1.66,2.14-1.11,3.71-2.54,4.71-4.29,1.16-1.94,1.73-5.12,1.73-9.56v-1.83Z"
    fill="#231f20" stroke="#231f20" stroke-miterlimit="10" stroke-width="2" />
</svg>
