<?xml version="1.0" encoding="UTF-8"?>
<svg id="a" data-name="Layer 1" xmlns="http://www.w3.org/2000/svg" viewBox="0 0 613.14 194.55">
  <circle cx="97.28" cy="97.28" r="97.28" style="fill: #f99d1c;"/>
  <circle cx="97.28" cy="97.28" r="87.04" style="fill: #cd4b27;"/>
  <circle cx="97.28" cy="97.28" r="76.8" style="fill: #5c2e0e;"/>
  <path d="m73.03,128.9v-5.41l24.08-29.78v5.11l-23.1-32.34v-3.44h7.18l22.12,30.96-24.28,30.67-2.56-3.64h40.5l-5.41,4.91,3.74-17.69h5.9l-.79,20.64h-47.38Zm36.86-65.86l5.41,4.91h-37.94v-4.91h41.38l.79,17.5h-5.9l-3.74-17.5Z" style="fill: #f99d1c;"/>
  <g>
    <path d="m231.66,118.7l15.38-22.45-12.94-19.97c-1.22-1.94-2.13-3.6-2.74-4.99-.61-1.39-.91-2.73-.91-4.01s.59-2.49,1.76-3.54c1.17-1.05,2.6-1.57,4.29-1.57,1.94,0,3.45.57,4.52,1.71,1.08,1.14,2.57,3.26,4.48,6.35l10.31,16.69,11.02-16.69c.91-1.41,1.68-2.61,2.32-3.61.64-1,1.26-1.83,1.85-2.48s1.26-1.15,1.99-1.48,1.59-.49,2.55-.49c1.75,0,3.18.52,4.29,1.57,1.11,1.05,1.66,2.29,1.66,3.73,0,2.09-1.2,4.94-3.61,8.53l-13.55,20.25,14.58,22.45c1.31,1.97,2.27,3.6,2.86,4.9.59,1.3.89,2.52.89,3.68,0,1.09-.27,2.09-.8,3-.53.91-1.28,1.62-2.25,2.16s-2.06.8-3.28.8c-1.31,0-2.42-.27-3.33-.82-.91-.55-1.64-1.23-2.2-2.04-.56-.81-1.61-2.39-3.14-4.73l-12.09-19.03-12.84,19.59c-1,1.56-1.71,2.66-2.13,3.28-.42.63-.93,1.24-1.52,1.83-.59.59-1.3,1.06-2.11,1.41s-1.77.52-2.86.52c-1.69,0-3.09-.52-4.2-1.55s-1.66-2.53-1.66-4.5c0-2.31,1.14-5.14,3.42-8.48Z" style="fill: #231f20; stroke: #231f20; stroke-miterlimit: 10; stroke-width: 2px;"/>
    <path d="m292.74,124.75v-54.14c0-2.81.64-4.92,1.92-6.33s2.94-2.11,4.97-2.11,3.79.7,5.09,2.09c1.3,1.39,1.95,3.51,1.95,6.35v54.14c0,2.84-.65,4.97-1.95,6.38s-2.99,2.11-5.09,2.11-3.65-.71-4.95-2.13-1.95-3.54-1.95-6.35Z" style="fill: #231f20; stroke: #231f20; stroke-miterlimit: 10; stroke-width: 2px;"/>
    <path d="m363.89,108.15v17.02c0,2.69-.61,4.7-1.83,6.05-1.22,1.34-2.83,2.02-4.83,2.02s-3.51-.67-4.71-2.02c-1.2-1.34-1.8-3.36-1.8-6.05v-20.39c0-3.22-.11-5.72-.33-7.5s-.81-3.24-1.78-4.38c-.97-1.14-2.5-1.71-4.59-1.71-4.19,0-6.95,1.44-8.27,4.31-1.33,2.88-1.99,7-1.99,12.38v17.3c0,2.66-.6,4.66-1.8,6.02s-2.79,2.04-4.76,2.04-3.52-.68-4.76-2.04-1.85-3.37-1.85-6.02v-36.61c0-2.41.55-4.23,1.66-5.48,1.11-1.25,2.57-1.88,4.38-1.88s3.21.59,4.38,1.76,1.76,2.79,1.76,4.85v1.22c2.22-2.66,4.59-4.61,7.12-5.86,2.53-1.25,5.34-1.88,8.44-1.88s5.98.64,8.3,1.92c2.31,1.28,4.22,3.22,5.72,5.81,2.16-2.62,4.47-4.57,6.94-5.84s5.2-1.9,8.2-1.9c3.5,0,6.52.69,9.05,2.06,2.53,1.38,4.42,3.34,5.67,5.91,1.09,2.31,1.64,5.95,1.64,10.92v24.98c0,2.69-.61,4.7-1.83,6.05-1.22,1.34-2.83,2.02-4.83,2.02s-3.52-.68-4.76-2.04-1.85-3.37-1.85-6.02v-21.52c0-2.75-.12-4.95-.35-6.61-.23-1.66-.87-3.05-1.9-4.17s-2.59-1.69-4.69-1.69c-1.69,0-3.29.5-4.8,1.5-1.52,1-2.7,2.34-3.54,4.03-.94,2.16-1.41,5.97-1.41,11.44Z" style="fill: #231f20; stroke: #231f20; stroke-miterlimit: 10; stroke-width: 2px;"/>
    <path d="m438.61,126.01c-3.09,2.41-6.09,4.21-8.98,5.41-2.89,1.2-6.13,1.8-9.73,1.8-3.28,0-6.16-.65-8.65-1.95-2.48-1.3-4.4-3.05-5.74-5.27-1.34-2.22-2.02-4.62-2.02-7.22,0-3.5,1.11-6.48,3.33-8.95,2.22-2.47,5.27-4.12,9.14-4.97.81-.19,2.83-.61,6.05-1.27s5.98-1.26,8.27-1.8c2.3-.55,4.79-1.21,7.48-1.99-.16-3.38-.84-5.85-2.04-7.43-1.2-1.58-3.7-2.37-7.48-2.37-3.25,0-5.7.45-7.34,1.36-1.64.91-3.05,2.27-4.22,4.08-1.17,1.81-2,3.01-2.48,3.59-.48.58-1.52.87-3.12.87-1.44,0-2.68-.46-3.73-1.38-1.05-.92-1.57-2.1-1.57-3.54,0-2.25.8-4.44,2.39-6.56,1.59-2.12,4.08-3.87,7.45-5.25,3.38-1.38,7.58-2.06,12.61-2.06,5.62,0,10.05.66,13.27,1.99,3.22,1.33,5.49,3.43,6.82,6.3,1.33,2.88,1.99,6.69,1.99,11.44,0,3,0,5.55-.02,7.64-.02,2.09-.04,4.42-.07,6.98,0,2.41.4,4.92,1.2,7.52.8,2.61,1.2,4.29,1.2,5.04,0,1.31-.62,2.51-1.85,3.59s-2.63,1.62-4.2,1.62c-1.31,0-2.61-.62-3.89-1.85s-2.64-3.02-4.08-5.37Zm-.84-18.52c-1.88.69-4.6,1.41-8.18,2.18-3.58.77-6.05,1.33-7.43,1.69-1.38.36-2.69,1.06-3.94,2.11-1.25,1.05-1.88,2.51-1.88,4.38s.73,3.59,2.2,4.95,3.39,2.04,5.77,2.04c2.53,0,4.87-.55,7.01-1.66,2.14-1.11,3.71-2.54,4.71-4.29,1.16-1.94,1.73-5.12,1.73-9.56v-1.83Z" style="fill: #231f20; stroke: #231f20; stroke-miterlimit: 10; stroke-width: 2px;"/>
    <path d="m509.11,90.58v37.17c0,4.25-.45,7.91-1.36,10.97s-2.36,5.59-4.36,7.59-4.62,3.48-7.85,4.45-7.26,1.45-12.07,1.45c-4.41,0-8.34-.62-11.81-1.85s-6.14-2.83-8.02-4.78-2.81-3.96-2.81-6.02c0-1.56.53-2.84,1.59-3.82s2.34-1.48,3.84-1.48c1.88,0,3.52.83,4.92,2.48.69.84,1.4,1.7,2.13,2.55s1.55,1.59,2.44,2.2,1.96,1.06,3.21,1.36,2.69.45,4.31.45c3.31,0,5.88-.46,7.71-1.38s3.11-2.21,3.84-3.87,1.16-3.43,1.29-5.32.22-4.93.28-9.12c-1.97,2.75-4.24,4.84-6.82,6.28-2.58,1.44-5.65,2.16-9.21,2.16-4.28,0-8.02-1.09-11.23-3.28-3.2-2.19-5.66-5.25-7.38-9.19s-2.58-8.48-2.58-13.64c0-3.84.52-7.31,1.57-10.41s2.54-5.7,4.48-7.83c1.94-2.12,4.17-3.73,6.7-4.8s5.31-1.62,8.34-1.62c3.62,0,6.77.7,9.42,2.09,2.66,1.39,5.12,3.57,7.41,6.54v-1.73c0-2.22.55-3.94,1.64-5.16s2.5-1.83,4.22-1.83c2.47,0,4.11.8,4.92,2.41.81,1.61,1.22,3.93,1.22,6.96Zm-37.08,16.22c0,5.19,1.13,9.11,3.4,11.77,2.27,2.66,5.2,3.98,8.79,3.98,2.12,0,4.13-.57,6.02-1.71,1.89-1.14,3.43-2.86,4.62-5.16s1.78-5.09,1.78-8.37c0-5.22-1.15-9.28-3.45-12.19s-5.32-4.36-9.07-4.36-6.59,1.39-8.79,4.17c-2.2,2.78-3.3,6.73-3.3,11.86Z" style="fill: #231f20; stroke: #231f20; stroke-miterlimit: 10; stroke-width: 2px;"/>
    <path d="m555.38,110.36h-25.03c.03,2.91.62,5.47,1.76,7.69,1.14,2.22,2.66,3.89,4.55,5.02s3.98,1.69,6.26,1.69c1.53,0,2.93-.18,4.2-.54,1.27-.36,2.49-.92,3.68-1.69,1.19-.77,2.28-1.59,3.28-2.46,1-.87,2.3-2.06,3.89-3.56.66-.56,1.59-.84,2.81-.84,1.31,0,2.38.36,3.19,1.08.81.72,1.22,1.73,1.22,3.05,0,1.16-.45,2.51-1.36,4.05s-2.27,3.03-4.1,4.45c-1.83,1.42-4.12,2.6-6.89,3.54s-5.95,1.41-9.54,1.41c-8.22,0-14.61-2.34-19.17-7.03s-6.84-11.05-6.84-19.08c0-3.78.56-7.29,1.69-10.52s2.77-6.01,4.92-8.32c2.16-2.31,4.81-4.09,7.97-5.32,3.16-1.23,6.66-1.85,10.5-1.85,5,0,9.29,1.05,12.87,3.16s6.26,4.84,8.04,8.18c1.78,3.34,2.67,6.75,2.67,10.22,0,3.22-.92,5.3-2.77,6.26-1.84.95-4.44,1.43-7.78,1.43Zm-25.03-7.27h23.2c-.31-4.38-1.49-7.65-3.54-9.82-2.05-2.17-4.74-3.26-8.09-3.26s-5.8,1.1-7.85,3.3-3.29,5.46-3.73,9.77Z" style="fill: #231f20; stroke: #231f20; stroke-miterlimit: 10; stroke-width: 2px;"/>
    <path d="m589.41,114.76v10.69c0,2.59-.61,4.54-1.83,5.84-1.22,1.3-2.77,1.95-4.64,1.95s-3.36-.66-4.55-1.97-1.78-3.25-1.78-5.81v-35.62c0-5.75,2.08-8.62,6.23-8.62,2.12,0,3.66.67,4.59,2.02.94,1.34,1.45,3.33,1.55,5.95,1.53-2.62,3.1-4.61,4.71-5.95,1.61-1.34,3.76-2.02,6.45-2.02s5.3.67,7.83,2.02c2.53,1.34,3.8,3.12,3.8,5.34,0,1.56-.54,2.85-1.62,3.87-1.08,1.02-2.24,1.52-3.49,1.52-.47,0-1.6-.29-3.4-.87-1.8-.58-3.38-.87-4.76-.87-1.88,0-3.41.49-4.59,1.48s-2.11,2.45-2.77,4.38c-.66,1.94-1.11,4.24-1.36,6.91s-.38,5.93-.38,9.77Z" style="fill: #231f20; stroke: #231f20; stroke-miterlimit: 10; stroke-width: 2px;"/>
  </g>
</svg>