<svg enable-background="new 0 0 64 64" viewBox="0 0 64 64" xmlns="http://www.w3.org/2000/svg"><path d="m18.8 3.2c-2 0-3.9 1.2-4.9 2.9l-13.1 22.9c-1 1.8-1 3.9 0 5.7l13.1 23c1 1.8 2.9 3 4.9 3h26.3c2.1-.1 3.9-1.2 4.9-3l13.1-22.9c.6-.8.9-1.8.9-2.8 0-1-.3-2-.8-2.9l-13.1-22.9c-1-1.8-2.9-2.9-4.9-2.9h-26.4z" fill="#4285f4"/><path d="m59.1 42-9 15.7c-1 1.8-2.9 3-4.9 3h-10l-14.7-14.7 4.3-13.9-4.3-14.1 4.4 3 6 6-2.8-9 20.8 14z" fill-opacity=".07"/><path d="m20.5 18.1 4.4 3 3.5 11.2-3.4 10.7-4.5 3 4.3-13.9zm11.3 4.9 2.2 7h8.2zm17.2 9.1-20.9 13.9 4.3-13.9-4.3-14z" fill="#fff"/></svg>